<svg id="Layer_1" data-name="Layer 1" xmlns="http://www.w3.org/2000/svg" viewBox="0 0 378.5191 378.51729"><defs><style>.cls-1{fill:#fff;}.cls-2{fill:none;}</style></defs><title>G White</title><path class="cls-1" d="M189.25955,9.1466c99.31374,0,180.113,80.79738,180.113,180.113,0,99.31371-80.79922,180.11111-180.113,180.11111S9.1466,288.57329,9.1466,189.25958c0-99.31561,80.7992-180.113,180.113-180.113m0-9.1466C84.73407,0,0,84.73409,0,189.25958,0,293.7832,84.73407,378.51729,189.25955,378.51729S378.5191,293.7832,378.5191,189.25958C378.5191,84.73409,293.785,0,189.25955,0"/><path class="cls-2" d="M191.91043,89.077c-54.79534,0-99.216,44.85307-99.216,100.18171S137.11509,289.44,191.91043,289.44c54.7957,0,99.216-44.85271,99.216-100.18135h-12.397c0,48.41551-38.87025,87.66382-86.819,87.66382s-86.819-39.24831-86.819-87.66382,38.87025-87.66382,86.819-87.66382a86.19366,86.19366,0,0,1,65.4569,30.19415l11.39193-5.86479A98.63525,98.63525,0,0,0,191.91043,89.077Z"/><path class="cls-2" d="M191.91043,116.24519c-39.79377,0-72.16866,32.75367-72.16866,73.01348s32.37489,73.01348,72.16866,73.01348c39.79413,0,72.16866-32.75367,72.16866-73.01348h-18.172l-7.14848-47.88973,5.12547-2.63856A71.51577,71.51577,0,0,0,191.91043,116.24519Z"/><path class="cls-1" d="M191.91043,289.44c-54.79534,0-99.216-44.85271-99.216-100.18135S137.11509,89.077,191.91043,89.077a98.63525,98.63525,0,0,1,76.84882,36.84725l13.13809-6.76326c-20.8449-27.15106-53.3811-44.73432-89.98692-44.73432-62.78614,0-113.86632,51.51332-113.86632,114.832,0,63.31836,51.08018,114.83169,113.86632,114.83169S305.77675,252.577,305.77675,189.25867H291.12641C291.12641,244.58731,246.70613,289.44,191.91043,289.44Z"/><path class="cls-1" d="M191.91043,262.27216c-39.79377,0-72.16866-32.75367-72.16866-73.01348s32.37489-73.01348,72.16866-73.01348a71.51577,71.51577,0,0,1,51.97365,22.48519l13.48325-6.94138a86.19366,86.19366,0,0,0-65.4569-30.19415c-47.94874,0-86.819,39.24831-86.819,87.66382s38.87025,87.66382,86.819,87.66382,86.819-39.24831,86.819-87.66382H264.07909C264.07909,229.51849,231.70455,262.27216,191.91043,262.27216Z"/><rect class="cls-1" x="199.55577" y="189.25864" width="105.09871" height="14.94182"/></svg>